<?xml version="1.0" standalone="no"?>
<!DOCTYPE svg PUBLIC "-//W3C//DTD SVG 1.1//EN" "http://www.w3.org/Graphics/SVG/1.1/DTD/svg11.dtd" >
<svg xmlns="http://www.w3.org/2000/svg" xmlns:xlink="http://www.w3.org/1999/xlink" version="1.1">
<metadata></metadata>
<defs>
<font id="azonixregular" horiz-adv-x="1638" >
<font-face units-per-em="2048" ascent="1638" descent="-410" />
<missing-glyph horiz-adv-x="997" />
<glyph horiz-adv-x="204" />
<glyph horiz-adv-x="204" />
<glyph horiz-adv-x="682" />
<glyph unicode="&#xa;" horiz-adv-x="204" />
<glyph unicode="&#xd;" horiz-adv-x="204" />
<glyph unicode=" "  horiz-adv-x="997" />
<glyph unicode="&#x09;" horiz-adv-x="997" />
<glyph unicode="&#xa0;" horiz-adv-x="997" />
<glyph unicode="!" horiz-adv-x="460" d="M102 -14v256h256v-256h-256zM102 1075v344h256v-344l-67 -729h-121z" />
<glyph unicode="&#x22;" horiz-adv-x="786" d="M100 1032v504h256v-504h-256zM428 1032v504h256v-504h-256z" />
<glyph unicode="#" horiz-adv-x="1644" d="M104 305l13 62l33 172l6 24h280l2 12l54 265h-281l51 254v2h281l63 321h260l-63 -321h201l63 321h258l-63 -321h282l-51 -256h-283l-51 -271l-2 -8h283l-49 -248l-2 -8h-283l-64 -321h-260l64 321h-201l-63 -321h-260l14 69l24 131l25 121h-281zM698 563h199l2 8l53 269 l2 2h-200l-54 -271z" />
<glyph unicode="$" horiz-adv-x="1560" d="M102 416v8h256v-8q0 -54 38.5 -92.5t92.5 -38.5h162v270h-96h-12h-54q-156 0 -268 109q-30 30 -49 61q-68 96 -68 219v8q0 160 112.5 273.5t272.5 113.5h164v277h256v-277h162q160 0 273.5 -113.5t113.5 -273.5v-8h-256v8q0 54 -38.5 92.5t-92.5 38.5h-162v-270h97h12h53 q157 0 268 -108q31 -31 50 -62q67 -95 67 -219v-8q0 -160 -112.5 -273.5t-272.5 -113.5h-164v-258h-256v258h-162q-160 0 -273.5 113.5t-113.5 273.5zM356 944q0 -54 38.5 -92.5t92.5 -38.5h164v270h-164q-54 0 -92.5 -38.5t-38.5 -92.5v-8zM907 287h164q54 0 92.5 38.5 t38.5 92.5v8q0 54 -38.5 92.5t-92.5 38.5h-164v-270z" />
<glyph unicode="%" horiz-adv-x="1900" d="M102 1040q0 151 106 257t257 106t256.5 -106t105.5 -257t-105.5 -256.5t-256.5 -105.5t-257 105.5t-106 256.5zM356 1040q0 -44 32.5 -76t76.5 -32t76 32t32 76t-32 76.5t-76 32.5t-76.5 -32.5t-32.5 -76.5zM418 -31l753 1434h289l-753 -1434h-289zM1069 334 q0 151 106 256.5t257 105.5t256.5 -105.5t105.5 -256.5t-105.5 -257t-256.5 -106t-257 106t-106 257zM1323 334q0 -44 32.5 -76.5t76.5 -32.5t76 32.5t32 76.5t-32 76t-76 32t-76.5 -32t-32.5 -76z" />
<glyph unicode="&#x26;" horiz-adv-x="1619" d="M104 426q0 173 119 295q-119 122 -119 295t123.5 296.5t296.5 123.5h740v-256h-740q-68 0 -117 -49t-49 -117q0 -69 49 -118.5t117 -49.5l996 6v-258h-256v-588h-740q-173 0 -296.5 123.5t-123.5 296.5zM360 428q0 -68 49 -117t117 -49h484v334h-484q-68 0 -117 -49.5 t-49 -118.5z" />
<glyph unicode="'" horiz-adv-x="460" d="M102 1028v508h256v-508h-256z" />
<glyph unicode="(" horiz-adv-x="819" d="M102.5 634q3.5 149 29 270.5t70.5 241t92 206t103 168.5h320h-2q-49 -55 -95.5 -118t-106.5 -175t-98 -228.5t-52.5 -274.5t11 -317t111.5 -352.5t232 -384.5h-314q-111 170 -180.5 343t-96.5 322.5t-23.5 298.5z" />
<glyph unicode=")" horiz-adv-x="819" d="M100 -330q146 191 232 384.5t111.5 352.5t11 317t-52.5 274.5t-98 228.5t-106.5 175t-95.5 118h320h-2q56 -82 103 -168.5t92 -206t70.5 -241t29 -270.5t-23.5 -298.5t-96.5 -322.5t-180.5 -343h-314z" />
<glyph unicode="*" horiz-adv-x="792" d="M100 1255q7 22 21.5 67.5t21.5 68.5q34 -15 101.5 -43t101.5 -43q-3 36 -9 107.5t-9 107.5h141q-20 -183 -23 -215q34 15 101.5 43t101.5 43q7 -22 21.5 -67.5t21.5 -68.5q-36 -8 -107.5 -24.5t-107.5 -24.5h-2q24 -27 71 -83t70 -83q-18 -13 -54.5 -39t-55.5 -40 q-18 32 -55 95.5t-56 94.5q-18 -32 -54.5 -95.5t-55.5 -94.5q-19 13 -56 39.5t-55 39.5q23 27 70 83t71 83q-36 8 -107.5 24.5t-107.5 24.5z" />
<glyph unicode="+" horiz-adv-x="1175" d="M102 549v256h359v358h256v-358h358v-256h-358v-359h-256v359h-359z" />
<glyph unicode="," horiz-adv-x="460" d="M102 -14v256h254v-512h-127z" />
<glyph unicode="-" horiz-adv-x="1175" d="M102 549v256h971v-256h-971z" />
<glyph unicode="." horiz-adv-x="460" d="M102 -14v256h256v-256h-256z" />
<glyph unicode="/" horiz-adv-x="876" d="M102 -31l187 656l71 256l148 522h266l-147 -522l-72 -256l-186 -656h-267z" />
<glyph unicode="0" horiz-adv-x="1574" d="M102 465v506q0 192 135.5 327.5t327.5 135.5h443q192 0 327 -135.5t135 -327.5v-506q0 -192 -135 -327.5t-327 -135.5h-443q-192 0 -327.5 135.5t-135.5 327.5zM356 463q0 -86 61.5 -147.5t147.5 -61.5h443q86 0 147.5 61.5t61.5 147.5v506q0 86 -61.5 147.5t-147.5 61.5 h-443q-86 0 -147.5 -61.5t-61.5 -147.5v-506z" />
<glyph unicode="1" horiz-adv-x="692" d="M106 1157v254h31h25v-2q94 -6 174 -47q68 -34 121.5 -88t85.5 -121q25 -56 35 -96q12 -49 12 -105l4 4v-974h-256v1001q-9 67 -57.5 116t-116.5 58h-25h-33z" />
<glyph unicode="2" d="M100 -4v422q0 88 35 166q46 112 147 183t226 75h614h6q65 6 108.5 54t43.5 112q0 69 -48.5 118.5t-117.5 49.5h-1010v256h1010q175 0 298.5 -123.5t123.5 -298.5q0 -88 -35 -166q-30 -71 -86 -127q-120 -123 -289 -129h-6h-6h-606q-63 -6 -106.5 -54t-43.5 -112v-166 l1172 -4v-256h-1010h-420z" />
<glyph unicode="3" d="M102 -12v256h1010q69 0 118.5 49.5t49.5 118.5q0 67 -46 116t-112 52h-6h-756v256h756h6q66 3 113 52t47 116q0 69 -49.5 118t-118.5 49h-1010v256h1010q175 0 298.5 -123t123.5 -298l-2 -7q0 -172 -119 -294q119 -122 119 -295q0 -175 -123.5 -298.5t-298.5 -123.5 h-1010z" />
<glyph unicode="4" d="M100 1012v422h256v-422q0 -69 49.5 -118.5t118.5 -49.5h756v590h254v-1434h-256v590h-756q-106 0 -192 47q-104 53 -167 153.5t-63 221.5z" />
<glyph unicode="5" d="M102 -6v256h1010q69 0 117.5 49.5t48.5 118.5q0 65 -42.5 112.5t-105.5 53.5h-1028v843h1313v-256h-1057v-331h756h14q124 -3 225.5 -73.5t147.5 -182.5l-2 -2q35 -78 35 -166q0 -175 -123.5 -298.5t-298.5 -123.5h-1010z" />
<glyph unicode="6" d="M100 430v588q0 156 107 276q54 60 123 97q86 47 192 47h891v-256h-891q-69 0 -118.5 -49.5t-49.5 -118.5v-201q81 33 160 33h2h6h588h6h2q174 -3 297 -129l-2 6q119 -122 119 -295q0 -175 -123.5 -298.5t-298.5 -123.5h-588q-130 0 -235.5 71t-153.5 187q-33 84 -33 166z M354 430q0 -69 49.5 -118.5t118.5 -49.5h588h-2q69 0 118.5 49.5t49.5 118.5q0 67 -46 116t-112 52h-2h-6h-588h-6h-2q-66 -3 -113 -52t-47 -116z" />
<glyph unicode="7" horiz-adv-x="1386" d="M102 1178v256h727q107 0 201 -48q141 -71 207 -208v2q47 -92 47 -201v-977h-256v1002q-9 67 -57.5 116t-116.5 58h-752z" />
<glyph unicode="8" d="M104 1012q0 173 119 295q59 61 135 96q81 33 160 33h6h588h6q174 -3 297 -129q119 -122 119 -295t-119 -295l4 -2q119 -122 119 -295q0 -175 -123.5 -298.5t-298.5 -123.5h-588q-130 0 -235.5 71t-153.5 187q-33 84 -33 166q0 173 119 295q-60 60 -88 129q-33 84 -33 166 zM348 1006q0 -67 48 -115.5t116 -50.5h6h588h6h-6q68 2 116 50.5t48 115.5t-46 116t-112 52h-604q-66 -3 -113 -52t-47 -116zM360 422q0 -69 49.5 -118.5t118.5 -49.5h588l-8 -2q69 0 118.5 49.5t49.5 118.5q0 67 -46 116t-112 52h-6h-588h-6q-66 -3 -112 -51.5t-46 -114.5z " />
<glyph unicode="9" d="M102 1012q0 175 123.5 298.5t298.5 123.5h588q130 0 235.5 -71t153.5 -187h2q33 -84 33 -166v-588q0 -91 -35.5 -171.5t-99.5 -139.5q-47 -44 -94 -68q-86 -47 -193 -47h-891v256h891q69 0 118.5 49.5t49.5 118.5v201q-81 -33 -160 -33h-2h-6h-588h-6h-2q-174 3 -297 129 q-119 122 -119 295zM358 1010q0 -67 47 -116t113 -52h2h6h588h6h2q66 3 113 52t47 116q0 69 -49.5 118.5t-118.5 49.5h-588q-69 0 -118.5 -49.5t-49.5 -118.5z" />
<glyph unicode=":" horiz-adv-x="460" d="M102 -14v256h256v-256h-256zM102 768v256h256v-256h-256z" />
<glyph unicode=";" horiz-adv-x="460" d="M100 242h256v-512h-127l-127 256zM100 768v256h256v-256h-256z" />
<glyph unicode="&#x3c;" horiz-adv-x="1175" d="M102 549v272l359 127l256 90l358 127v-272l-227 -80l-131 -45l-232 -82l232 -82l131 -47l227 -80v-272l-358 127l-256 90z" />
<glyph unicode="=" horiz-adv-x="1175" d="M102 319v256h971v-256h-971zM102 752v256h971v-256h-971z" />
<glyph unicode="&#x3e;" horiz-adv-x="1175" d="M102 201v272l228 80l131 47l231 82l-231 82l-131 47l-228 80v272l359 -127l256 -90l358 -129v-272l-358 -127l-256 -90z" />
<glyph unicode="?" horiz-adv-x="1560" d="M102 963q0 106 48 200q56 116 166 186t243 70h440q133 0 243.5 -70t166.5 -186v4q47 -92 47 -202q0 -189 -134 -323t-323 -134h-92v-160h-256v414h348q83 0 142 59t59 142t-59 141.5t-142 58.5h-440q-83 0 -142 -58.5t-59 -141.5h-256zM651 -14v256h256v-256h-256z" />
<glyph unicode="@" d="M102 702q0 145 57 278t153 229t229 153t278 57l715 2v-921h-715q-85 0 -145 60t-60 145t60 144.5t145 59.5h205v-155h256v409h-461q-125 0 -231 -62t-168 -168t-62 -231q0 -190 135 -325t326 -135h717v-256h-717q-146 0 -278.5 57t-228.5 152.5t-153 228.5t-57 278z" />
<glyph unicode="A" horiz-adv-x="1505" d="M23 0l131 256l600 1178l600 -1178l131 -256h-287l-131 256l-313 614l-314 -614l-131 -256h-286z" />
<glyph unicode="&#xc4;" horiz-adv-x="1505" d="M23 0l131 256l600 1178l600 -1178l131 -256h-287l-131 256l-313 614l-314 -614l-131 -256h-286z" />
<glyph unicode="&#xc3;" horiz-adv-x="1505" d="M23 0l131 256l600 1178l600 -1178l131 -256h-287l-131 256l-313 614l-314 -614l-131 -256h-286z" />
<glyph unicode="&#xc2;" horiz-adv-x="1505" d="M23 0l131 256l600 1178l600 -1178l131 -256h-287l-131 256l-313 614l-314 -614l-131 -256h-286z" />
<glyph unicode="&#xc1;" horiz-adv-x="1505" d="M23 0l131 256l600 1178l600 -1178l131 -256h-287l-131 256l-313 614l-314 -614l-131 -256h-286z" />
<glyph unicode="&#xc0;" horiz-adv-x="1505" d="M23 0l131 256l600 1178l600 -1178l131 -256h-287l-131 256l-313 614l-314 -614l-131 -256h-286z" />
<glyph unicode="B" horiz-adv-x="1587" d="M102 0v1434h904q160 0 273.5 -113.5t113.5 -273.5q0 -115 -62 -209q94 -63 149.5 -163t55.5 -218q0 -189 -134 -323t-323 -134h-977zM358 256h721v2q83 0 142 59t59 142t-59 141.5t-142 58.5h-721v-403zM358 915h650q54 0 92.5 39t38.5 93t-38.5 92.5t-92.5 38.5h-650 v-263z" />
<glyph unicode="C" horiz-adv-x="1617" d="M82 717q0 145 57 278t153 229t229 153t278 57h717v-256h-717q-125 0 -231 -62t-168 -168t-62 -231t62 -231t168 -168t231 -62h717v-256h-717q-145 0 -278 57t-229 153t-153 229t-57 278z" />
<glyph unicode="D" d="M102 0v1434l715 -2q146 0 278.5 -56.5t228.5 -152.5t153 -228.5t57 -277.5q0 -130 -44.5 -248.5t-125.5 -214.5q-12 -14 -41 -43q-98 -100 -228.5 -155.5t-275.5 -55.5h-717zM356 254h461q125 0 231 62t168 168t62 231t-62 231t-168 168t-231 62h-461v-922z" />
<glyph unicode="E" d="M104 387v660q0 160 112.5 273.5t272.5 113.5h1047v-256h-1047q-54 0 -92.5 -38.5t-38.5 -92.5v-134h922v-256h-922v-270q0 -54 38.5 -92.5t92.5 -38.5h1047v-256h-1047q-160 0 -272.5 113.5t-112.5 273.5z" />
<glyph unicode="&#xca;" d="M104 387v660q0 160 112.5 273.5t272.5 113.5h1047v-256h-1047q-54 0 -92.5 -38.5t-38.5 -92.5v-134h922v-256h-922v-270q0 -54 38.5 -92.5t92.5 -38.5h1047v-256h-1047q-160 0 -272.5 113.5t-112.5 273.5z" />
<glyph unicode="&#xc9;" d="M104 387v660q0 160 112.5 273.5t272.5 113.5h1047v-256h-1047q-54 0 -92.5 -38.5t-38.5 -92.5v-134h922v-256h-922v-270q0 -54 38.5 -92.5t92.5 -38.5h1047v-256h-1047q-160 0 -272.5 113.5t-112.5 273.5z" />
<glyph unicode="&#xc8;" d="M104 387v660q0 160 112.5 273.5t272.5 113.5h1047v-256h-1047q-54 0 -92.5 -38.5t-38.5 -92.5v-134h922v-256h-922v-270q0 -54 38.5 -92.5t92.5 -38.5h1047v-256h-1047q-160 0 -272.5 113.5t-112.5 273.5z" />
<glyph unicode="F" d="M104 0v1047q0 160 112.5 273.5t272.5 113.5h1049v-256h-1046q-54 0 -93 -38.5t-39 -92.5v-134h922v-256h-924v-657h-254z" />
<glyph unicode="G" d="M102 717q0 145 57 278t153 229t229 153t278 57h717v-256h-717q-125 0 -231 -62t-168 -168t-62 -231t62 -231t168 -168t231 -62h461v274h-461v256h717v-786h-717q-145 0 -278 57t-229 153t-153 229t-57 278z" />
<glyph unicode="H" d="M102 0v1434h256v-521h922v521h256v-1434h-256v657h-922v-657h-256z" />
<glyph unicode="I" horiz-adv-x="460" d="M102 0v1434h256v-1434h-256z" />
<glyph unicode="&#xce;" horiz-adv-x="460" d="M102 0v1434h256v-1434h-256z" />
<glyph unicode="&#xcd;" horiz-adv-x="460" d="M102 0v1434h256v-1434h-256z" />
<glyph unicode="&#xcc;" horiz-adv-x="460" d="M102 0v1434h256v-1434h-256z" />
<glyph unicode="J" d="M102 387v268h256v-268q0 -54 38.5 -92.5t92.5 -38.5h660q54 0 92.5 38.5t38.5 92.5v1047h256v-1047q0 -160 -113.5 -272.5t-273.5 -112.5h-660q-160 0 -273.5 112.5t-113.5 272.5z" />
<glyph unicode="K" d="M100 0v1434h256v-734l211 193l191 174l399 367h379l-627 -576l621 -858h-316l-495 684l-363 -330v-354h-256z" />
<glyph unicode="L" horiz-adv-x="1386" d="M102 455v977h256v-1002q9 -68 57.5 -116.5t116.5 -57.5l752 -2v-256h-727q-109 0 -201 47q-139 70 -206 209q-48 94 -48 201z" />
<glyph unicode="M" d="M102 0v1434l256 -197l461 -354l461 354l256 197v-1434h-256v913l-252 -192l-209 -162l-209 162l-252 192v-913h-256z" />
<glyph unicode="N" d="M102 -2v1429l256 -196l922 -711v914l256 -2v-1434l-256 197l-922 710v-907h-256z" />
<glyph unicode="O" horiz-adv-x="1536" d="M51 717q0 145 57 278t153 229t229 153t278 57t278 -57t229 -153t153 -229t57 -278t-57 -278t-153 -229t-229 -153t-278 -57t-278 57t-229 153t-153 229t-57 278zM307 717q0 -125 62 -231t168 -168t231 -62t231 62t168 168t62 231t-62 231t-168 168t-231 62t-231 -62 t-168 -168t-62 -231z" />
<glyph unicode="&#xd6;" horiz-adv-x="1536" d="M51 717q0 145 57 278t153 229t229 153t278 57t278 -57t229 -153t153 -229t57 -278t-57 -278t-153 -229t-229 -153t-278 -57t-278 57t-229 153t-153 229t-57 278zM307 717q0 -125 62 -231t168 -168t231 -62t231 62t168 168t62 231t-62 231t-168 168t-231 62t-231 -62 t-168 -168t-62 -231z" />
<glyph unicode="&#xd5;" horiz-adv-x="1536" d="M51 717q0 145 57 278t153 229t229 153t278 57t278 -57t229 -153t153 -229t57 -278t-57 -278t-153 -229t-229 -153t-278 -57t-278 57t-229 153t-153 229t-57 278zM307 717q0 -125 62 -231t168 -168t231 -62t231 62t168 168t62 231t-62 231t-168 168t-231 62t-231 -62 t-168 -168t-62 -231z" />
<glyph unicode="&#xd4;" horiz-adv-x="1536" d="M51 717q0 145 57 278t153 229t229 153t278 57t278 -57t229 -153t153 -229t57 -278t-57 -278t-153 -229t-229 -153t-278 -57t-278 57t-229 153t-153 229t-57 278zM307 717q0 -125 62 -231t168 -168t231 -62t231 62t168 168t62 231t-62 231t-168 168t-231 62t-231 -62 t-168 -168t-62 -231z" />
<glyph unicode="&#xd3;" horiz-adv-x="1536" d="M51 717q0 145 57 278t153 229t229 153t278 57t278 -57t229 -153t153 -229t57 -278t-57 -278t-153 -229t-229 -153t-278 -57t-278 57t-229 153t-153 229t-57 278zM307 717q0 -125 62 -231t168 -168t231 -62t231 62t168 168t62 231t-62 231t-168 168t-231 62t-231 -62 t-168 -168t-62 -231z" />
<glyph unicode="&#xd2;" horiz-adv-x="1536" d="M51 717q0 145 57 278t153 229t229 153t278 57t278 -57t229 -153t153 -229t57 -278t-57 -278t-153 -229t-229 -153t-278 -57t-278 57t-229 153t-153 229t-57 278zM307 717q0 -125 62 -231t168 -168t231 -62t231 62t168 168t62 231t-62 231t-168 168t-231 62t-231 -62 t-168 -168t-62 -231z" />
<glyph unicode="P" horiz-adv-x="1495" d="M104 0v1434h904q159 0 272 -113l2 -4q113 -113 113 -273q0 -115 -62.5 -210.5t-163.5 -141.5q-53 -24 -110 -30h-12v-3h-687v-659h-256zM360 911h650q27 0 53 13v2q35 15 56.5 47.5t21.5 70.5q0 56 -39 95q-37 37 -92 37h-650v-265z" />
<glyph unicode="Q" d="M102 717q0 145 57 278t153 229t229 153t278 57t278 -57t229 -153t153 -229t57 -278h-2q0 -259 -168 -461h168v-256h-709h-6q-145 0 -278 57t-229 153t-153 229t-57 278zM356 717q0 -125 62 -231t168 -168t231 -62h12q186 5 317.5 139.5t131.5 321.5q0 125 -62 231 t-168 168t-231 62t-231 -62t-168 -168t-62 -231z" />
<glyph unicode="R" horiz-adv-x="1495" d="M100 -2v1434h906q159 0 272 -113q113 -116 113 -275q0 -115 -62.5 -210.5t-163.5 -141.5q-53 -24 -110 -30l205 -408l131 -256h-287l-131 256l-137 268l-7 13q-34 56 -91.5 89t-125.5 33h-256v-659h-256zM356 911l650 2q27 0 53 13q35 15 56.5 47.5t21.5 70.5 q0 56 -39 95q-37 37 -92 37h-650v-265z" />
<glyph unicode="S" horiz-adv-x="1560" d="M104 453h256q0 -82 57.5 -139.5t139.5 -57.5h449q82 0 140 57.5t58 139.5t-58 139t-140 57h-517q-156 0 -268 109q-30 30 -49 61q-68 96 -68 219v9q0 160 112.5 273.5t272.5 113.5h582q160 0 273.5 -113.5t113.5 -273.5v-9l-256 -2v8q0 54 -38.5 93t-92.5 39h-582 q-54 0 -92.5 -39t-38.5 -93v-8q0 -54 38.5 -92.5t92.5 -38.5h517q98 0 184 -39t149 -108q3 -3 8.5 -9.5t8.5 -9.5q102 -126 102 -286q0 -188 -132.5 -320.5t-319.5 -132.5h-449q-187 0 -320 133t-133 320z" />
<glyph unicode="T" d="M102 1176v256h1432v-256h-588v-1178h-256v1178h-588z" />
<glyph unicode="U" d="M102 717v717h256v-717q0 -125 62 -231t168 -168t231 -62t231 62t168 168t62 231v717h256v-717q0 -145 -57 -278t-153 -229t-229 -153t-278 -57t-278 57t-229 153t-153 229t-57 278z" />
<glyph unicode="&#xdb;" d="M102 717v717h256v-717q0 -125 62 -231t168 -168t231 -62t231 62t168 168t62 231v717h256v-717q0 -145 -57 -278t-153 -229t-229 -153t-278 -57t-278 57t-229 153t-153 229t-57 278z" />
<glyph unicode="&#xda;" d="M102 717v717h256v-717q0 -125 62 -231t168 -168t231 -62t231 62t168 168t62 231v717h256v-717q0 -145 -57 -278t-153 -229t-229 -153t-278 -57t-278 57t-229 153t-153 229t-57 278z" />
<glyph unicode="&#xd9;" d="M102 717v717h256v-717q0 -125 62 -231t168 -168t231 -62t231 62t168 168t62 231v717h256v-717q0 -145 -57 -278t-153 -229t-229 -153t-278 -57t-278 57t-229 153t-153 229t-57 278z" />
<glyph unicode="V" horiz-adv-x="1505" d="M20 1434h287l131 -256l314 -615l313 615l131 256h287l-131 -256l-600 -1178l-600 1178z" />
<glyph unicode="W" horiz-adv-x="2002" d="M102 1434h267l258 -865l217 301l41 58l116 159l117 -159l41 -58l217 -301l258 865h267l-336 -1125l-92 -309l-189 262l-285 391l-282 -391l-189 -260l-92 307z" />
<glyph unicode="X" horiz-adv-x="1536" d="M51 -2h4l-4 -4v4zM53 1432h324l393 -510l393 510h322h4l-555 -719l553 -715h-324l-391 506l-391 -506h-324l551 715zM1483 -2h2v-4z" />
<glyph unicode="Y" horiz-adv-x="1476" d="M20 0h5l-5 -4v4zM23 1436h323l393 -510l394 510h321l-555 -719l-31 -39v-676h-256v672l-34 43zM1452 0h2v-4z" />
<glyph unicode="Z" d="M106 1178v256h1108h322l-199 -256l-356 -463l-162 -209l-192 -248h915v-256h-1108l-2 -2h-323l2 2l196 256l352 457l162 209l197 254h-912z" />
<glyph unicode="[" horiz-adv-x="720" d="M102 -326v1844h516v-256h-262v-1332h262v-256h-516z" />
<glyph unicode="\" horiz-adv-x="876" d="M102 1403h267l147 -522l72 -256l186 -656h-266l-186 656l-72 256z" />
<glyph unicode="]" horiz-adv-x="720" d="M102 -68h263v1332h-263v256h516v-1844h-516v256z" />
<glyph unicode="_" d="M102 -119h1434v-256h-1434v256z" />
<glyph unicode="a" horiz-adv-x="1503" d="M20 0l132 256l600 1178l600 -1178l131 -256h-287l-131 256l-313 614l-314 -614l-131 -256h-287z" />
<glyph unicode="&#xe4;" horiz-adv-x="1503" d="M20 0l132 256l600 1178l600 -1178l131 -256h-287l-131 256l-313 614l-314 -614l-131 -256h-287z" />
<glyph unicode="&#xe3;" horiz-adv-x="1503" d="M20 0l132 256l600 1178l600 -1178l131 -256h-287l-131 256l-313 614l-314 -614l-131 -256h-287z" />
<glyph unicode="&#xe2;" horiz-adv-x="1503" d="M20 0l132 256l600 1178l600 -1178l131 -256h-287l-131 256l-313 614l-314 -614l-131 -256h-287z" />
<glyph unicode="&#xe1;" horiz-adv-x="1503" d="M20 0l132 256l600 1178l600 -1178l131 -256h-287l-131 256l-313 614l-314 -614l-131 -256h-287z" />
<glyph unicode="&#xe0;" horiz-adv-x="1503" d="M20 0l132 256l600 1178l600 -1178l131 -256h-287l-131 256l-313 614l-314 -614l-131 -256h-287z" />
<glyph unicode="b" horiz-adv-x="1587" d="M102 0v1434h904q160 0 273.5 -113.5t113.5 -273.5q0 -115 -62 -209q94 -63 149.5 -163t55.5 -218q0 -189 -134 -323t-323 -134h-977zM358 256h721v2q83 0 142 59t59 142t-59 141.5t-142 58.5h-721v-403zM358 915h650q54 0 92.5 39t38.5 93t-38.5 92.5t-92.5 38.5h-650 v-263z" />
<glyph unicode="c" horiz-adv-x="1617" d="M82 717q0 145 57 278t153 229t229 153t278 57h717v-256h-717q-125 0 -231 -62t-168 -168t-62 -231t62 -231t168 -168t231 -62h717v-256h-717q-145 0 -278 57t-229 153t-153 229t-57 278z" />
<glyph unicode="d" d="M102 0v1434h717l-2 -2q146 0 278.5 -56.5t228.5 -152.5t153 -228.5t57 -277.5q0 -130 -44.5 -248.5t-125.5 -214.5q-12 -14 -41 -43q-98 -100 -228.5 -155.5t-275.5 -55.5h-717zM356 254h461q125 0 231 62t168 168t62 231t-62 231t-168 168t-231 62h-461v-922z" />
<glyph unicode="e" d="M104 387v660q0 160 112.5 273.5t272.5 113.5h1047v-256h-1047q-54 0 -92.5 -38.5t-38.5 -92.5v-134h922v-256h-922v-270q0 -54 38.5 -92.5t92.5 -38.5h1047v-256h-1047q-160 0 -272.5 113.5t-112.5 273.5z" />
<glyph unicode="&#xea;" d="M104 387v660q0 160 112.5 273.5t272.5 113.5h1047v-256h-1047q-54 0 -92.5 -38.5t-38.5 -92.5v-134h922v-256h-922v-270q0 -54 38.5 -92.5t92.5 -38.5h1047v-256h-1047q-160 0 -272.5 113.5t-112.5 273.5z" />
<glyph unicode="&#xe9;" d="M104 387v660q0 160 112.5 273.5t272.5 113.5h1047v-256h-1047q-54 0 -92.5 -38.5t-38.5 -92.5v-134h922v-256h-922v-270q0 -54 38.5 -92.5t92.5 -38.5h1047v-256h-1047q-160 0 -272.5 113.5t-112.5 273.5z" />
<glyph unicode="&#xe8;" d="M104 387v660q0 160 112.5 273.5t272.5 113.5h1047v-256h-1047q-54 0 -92.5 -38.5t-38.5 -92.5v-134h922v-256h-922v-270q0 -54 38.5 -92.5t92.5 -38.5h1047v-256h-1047q-160 0 -272.5 113.5t-112.5 273.5z" />
<glyph unicode="f" d="M104 2v1045q0 160 112.5 273.5t272.5 113.5l1049 2v-256h-1046q-54 0 -93 -38.5t-39 -92.5v-134h922v-256h-924v-657h-254z" />
<glyph unicode="g" d="M102 717q0 145 57 278t153 229t229 153t278 57h717v-256h-717q-125 0 -231 -62t-168 -168t-62 -231t62 -231t168 -168t231 -62h461v274h-461v256h717v-786h-717q-145 0 -278 57t-229 153t-153 229t-57 278z" />
<glyph unicode="h" d="M102 0v1434h256v-521h922v521h256v-1434h-256v657h-922v-657h-256z" />
<glyph unicode="i" horiz-adv-x="460" d="M102 0v1434h256v-1434h-256z" />
<glyph unicode="&#xee;" horiz-adv-x="460" d="M102 0v1434h256v-1434h-256z" />
<glyph unicode="&#xed;" horiz-adv-x="460" d="M102 0v1434h256v-1434h-256z" />
<glyph unicode="&#xec;" horiz-adv-x="460" d="M102 0v1434h256v-1434h-256z" />
<glyph unicode="j" d="M102 387v268h256v-268q0 -54 38.5 -92.5t92.5 -38.5h660q54 0 92.5 38.5t38.5 92.5v1047h256v-1047q0 -160 -113.5 -272.5t-273.5 -112.5h-660q-160 0 -273.5 112.5t-113.5 272.5z" />
<glyph unicode="k" d="M100 0v1434h256v-734l211 193l191 174l399 367h379l-627 -576l621 -858h-316l-495 684l-363 -330v-354h-256z" />
<glyph unicode="l" horiz-adv-x="1386" d="M102 455v977h256v-1002q9 -68 57.5 -116.5t116.5 -57.5l752 -2v-256h-727q-109 0 -201 47q-139 70 -206 209q-48 94 -48 201z" />
<glyph unicode="m" d="M102 0v1434l256 -197l461 -354l461 354l256 197v-1434h-256v913l-252 -192l-209 -162l-209 162l-252 192v-913h-256z" />
<glyph unicode="n" d="M102 -2v1429l256 -196l922 -711v914l256 -2v-1434l-256 197l-922 710v-907h-256z" />
<glyph unicode="o" horiz-adv-x="1540" d="M53 717q0 145 57 278t153 229t229 153t278 57t278 -57t229 -153t153 -229t57 -278t-57 -278t-153 -229t-229 -153t-278 -57t-278 57t-229 153t-153 229t-57 278zM309 717q0 -125 62 -231t168 -168t231 -62t231 62t168 168t62 231t-62 231t-168 168t-231 62t-231 -62 t-168 -168t-62 -231z" />
<glyph unicode="&#xf6;" horiz-adv-x="1540" d="M53 717q0 145 57 278t153 229t229 153t278 57t278 -57t229 -153t153 -229t57 -278t-57 -278t-153 -229t-229 -153t-278 -57t-278 57t-229 153t-153 229t-57 278zM309 717q0 -125 62 -231t168 -168t231 -62t231 62t168 168t62 231t-62 231t-168 168t-231 62t-231 -62 t-168 -168t-62 -231z" />
<glyph unicode="&#xf5;" horiz-adv-x="1540" d="M53 717q0 145 57 278t153 229t229 153t278 57t278 -57t229 -153t153 -229t57 -278t-57 -278t-153 -229t-229 -153t-278 -57t-278 57t-229 153t-153 229t-57 278zM309 717q0 -125 62 -231t168 -168t231 -62t231 62t168 168t62 231t-62 231t-168 168t-231 62t-231 -62 t-168 -168t-62 -231z" />
<glyph unicode="&#xf4;" horiz-adv-x="1540" d="M53 717q0 145 57 278t153 229t229 153t278 57t278 -57t229 -153t153 -229t57 -278t-57 -278t-153 -229t-229 -153t-278 -57t-278 57t-229 153t-153 229t-57 278zM309 717q0 -125 62 -231t168 -168t231 -62t231 62t168 168t62 231t-62 231t-168 168t-231 62t-231 -62 t-168 -168t-62 -231z" />
<glyph unicode="&#xf3;" horiz-adv-x="1540" d="M53 717q0 145 57 278t153 229t229 153t278 57t278 -57t229 -153t153 -229t57 -278t-57 -278t-153 -229t-229 -153t-278 -57t-278 57t-229 153t-153 229t-57 278zM309 717q0 -125 62 -231t168 -168t231 -62t231 62t168 168t62 231t-62 231t-168 168t-231 62t-231 -62 t-168 -168t-62 -231z" />
<glyph unicode="&#xf2;" horiz-adv-x="1540" d="M53 717q0 145 57 278t153 229t229 153t278 57t278 -57t229 -153t153 -229t57 -278t-57 -278t-153 -229t-229 -153t-278 -57t-278 57t-229 153t-153 229t-57 278zM309 717q0 -125 62 -231t168 -168t231 -62t231 62t168 168t62 231t-62 231t-168 168t-231 62t-231 -62 t-168 -168t-62 -231z" />
<glyph unicode="p" horiz-adv-x="1495" d="M104 0v1434h904q159 0 272 -113l2 -2q113 -116 113 -275q0 -115 -62.5 -210.5t-163.5 -141.5q-53 -24 -110 -30h-12v-3h-687v-659h-256zM360 913h650q27 0 53 13v2q35 15 56.5 48t21.5 71q0 55 -39 94q-37 37 -92 37h-650v-265z" />
<glyph unicode="q" d="M102 717q0 145 57 278t153 229t229 153t278 57t278 -57t229 -153t153 -229t57 -278h-2q0 -259 -168 -461h168v-256h-709h-6q-145 0 -278 57t-229 153t-153 229t-57 278zM356 717q0 -125 62 -231t168 -168t231 -62h12q186 5 317.5 139.5t131.5 321.5q0 125 -62 231 t-168 168t-231 62t-231 -62t-168 -168t-62 -231z" />
<glyph unicode="r" horiz-adv-x="1495" d="M100 -4v1434h906q159 0 272 -113t113 -273q0 -115 -62.5 -210.5t-163.5 -141.5q-53 -24 -110 -30l205 -410l131 -256h-287l-131 256l-137 268l-7 12q-34 57 -91.5 90t-125.5 33h-256v-659h-256zM356 909l650 2q27 0 53 13q35 15 56.5 47.5t21.5 70.5q0 56 -39 95 q-37 37 -92 37h-650v-265z" />
<glyph unicode="s" horiz-adv-x="1560" d="M104 453h256q0 -82 57.5 -139.5t139.5 -57.5h449q82 0 140 57.5t58 139.5t-58 139t-140 57h-517q-156 0 -268 109q-30 30 -49 61q-68 96 -68 219v9q0 160 112.5 273.5t272.5 113.5h582q160 0 273.5 -113.5t113.5 -273.5v-9l-256 -2v8q0 54 -38.5 93t-92.5 39h-582 q-54 0 -92.5 -39t-38.5 -93v-8q0 -54 38.5 -92.5t92.5 -38.5h517q98 0 184 -39t149 -108q3 -3 8.5 -9.5t8.5 -9.5q102 -126 102 -286q0 -188 -132.5 -320.5t-319.5 -132.5h-449q-187 0 -320 133t-133 320z" />
<glyph unicode="t" d="M102 1176v256h1432v-256h-588v-1178h-256v1178h-588z" />
<glyph unicode="u" d="M102 717v717h256v-717q0 -125 62 -231t168 -168t231 -62t231 62t168 168t62 231v717h256v-717q0 -145 -57 -278t-153 -229t-229 -153t-278 -57t-278 57t-229 153t-153 229t-57 278z" />
<glyph unicode="&#xfb;" d="M102 717v717h256v-717q0 -125 62 -231t168 -168t231 -62t231 62t168 168t62 231v717h256v-717q0 -145 -57 -278t-153 -229t-229 -153t-278 -57t-278 57t-229 153t-153 229t-57 278z" />
<glyph unicode="&#xfa;" d="M102 717v717h256v-717q0 -125 62 -231t168 -168t231 -62t231 62t168 168t62 231v717h256v-717q0 -145 -57 -278t-153 -229t-229 -153t-278 -57t-278 57t-229 153t-153 229t-57 278z" />
<glyph unicode="&#xf9;" d="M102 717v717h256v-717q0 -125 62 -231t168 -168t231 -62t231 62t168 168t62 231v717h256v-717q0 -145 -57 -278t-153 -229t-229 -153t-278 -57t-278 57t-229 153t-153 229t-57 278z" />
<glyph unicode="v" horiz-adv-x="1503" d="M18 1434h287l131 -256l314 -615l313 615l131 256h287l-131 -256l-600 -1178l-600 1178z" />
<glyph unicode="w" horiz-adv-x="2002" d="M102 1434h267l258 -865l217 301l41 58l116 159l117 -159l41 -58l217 -301l258 865h267l-336 -1125l-92 -309l-189 262l-285 391l-282 -391l-189 -260l-92 307z" />
<glyph unicode="x" horiz-adv-x="1536" d="M51 -2h4l-4 -4v4zM53 1432h324l393 -510l393 510h322h4l-555 -719l553 -715h-324l-391 506l-391 -506h-324l551 715zM1483 -2h2v-4z" />
<glyph unicode="y" d="M100 0h4l-4 -4v4zM102 1436h324l393 -510l393 510h322l-555 -719l-31 -39v-676h-256v672l-35 43zM1532 0h2v-4z" />
<glyph unicode="&#xfd;" d="M100 0h4l-4 -4v4zM102 1436h324l393 -510l393 510h322l-555 -719l-31 -39v-676h-256v672l-35 43zM1532 0h2v-4z" />
<glyph unicode="z" d="M106 1176v256h1108h322l-199 -256l-356 -463l-162 -209l-192 -248h915v-256h-1108l-2 -2h-323l2 2l196 256l352 457l162 209l197 254h-912z" />
<glyph unicode="{" horiz-adv-x="780" d="M102 471v256h117q15 0 27.5 10t15.5 25v457q0 113 73.5 197.5t182.5 99.5q14 2 43 2h117v-256h-117q-15 0 -27.5 -10t-15.5 -25v-459q0 -29 -2 -43q-9 -69 -51 -127q42 -58 51 -127q2 -14 2 -43v-459q3 -15 15.5 -25t27.5 -10l117 3v-256h-117q-29 0 -43 2 q-109 15 -182.5 99.5t-73.5 197.5v456q-3 15 -15.5 25t-27.5 10h-117z" />
<glyph unicode="}" horiz-adv-x="780" d="M102 -45h117q15 0 27.5 10t15.5 25v459q0 29 2 43q9 68 51 126q-42 58 -51 127q-2 14 -2 43v459q-3 15 -15.5 25t-27.5 10h-117v256h117q29 0 43 -2q109 -15 182.5 -99.5t73.5 -197.5v-457q3 -15 15.5 -24.5t27.5 -9.5l117 -5v-231v-23h-117q-15 0 -27.5 -9.5 t-15.5 -24.5v-457q0 -113 -73.5 -197.5t-182.5 -99.5q-14 -2 -43 -2h-117v256z" />
<glyph unicode="~" horiz-adv-x="1210" d="M102 479v252q135 110 285 113q97 3 219 -43q27 -9 72 -31h-4q27 -13 50 -22t46.5 -12.5t40 -7t40.5 1.5t36.5 6t39.5 14t37.5 17.5t43.5 25t44.5 28t51.5 33.5v-252q-71 -58 -143 -86.5t-163 -26t-196 42.5q-27 9 -72 31q-96 44 -165 41q-38 -2 -82.5 -20.5t-76 -37.5 t-104.5 -67z" />
<glyph unicode="&#xa3;" horiz-adv-x="1542" d="M104 575v256h258v183q0 64 23 131q40 114 140 185t225 71h303q125 0 224.5 -71t139.5 -185q23 -67 23 -131v-183h-256v183q0 54 -38.5 92.5t-92.5 38.5h-303q-54 0 -93 -38.5t-39 -92.5v-183h461v-256h-461v-352h824v-256h-1080v608h-258z" />
<glyph unicode="&#xad;" horiz-adv-x="204" />
<glyph unicode="&#xd7;" horiz-adv-x="1073" d="M102 422l254 254l-254 254l181 180l254 -254l254 254l180 -180l-256 -254l254 -254l-181 -180l-251 254l-254 -254z" />
<glyph unicode="&#xf7;" horiz-adv-x="1175" d="M102 549v256h971v-256h-971zM461 193v256h256v-256h-256zM461 907v256h256v-256h-256z" />
<glyph unicode="&#x2000;" horiz-adv-x="808" />
<glyph unicode="&#x2001;" horiz-adv-x="1616" />
<glyph unicode="&#x2002;" horiz-adv-x="808" />
<glyph unicode="&#x2003;" horiz-adv-x="1616" />
<glyph unicode="&#x2004;" horiz-adv-x="538" />
<glyph unicode="&#x2005;" horiz-adv-x="404" />
<glyph unicode="&#x2006;" horiz-adv-x="269" />
<glyph unicode="&#x2007;" horiz-adv-x="269" />
<glyph unicode="&#x2008;" horiz-adv-x="202" />
<glyph unicode="&#x2009;" horiz-adv-x="323" />
<glyph unicode="&#x200a;" horiz-adv-x="89" />
<glyph unicode="&#x2010;" horiz-adv-x="1175" d="M102 549v256h971v-256h-971z" />
<glyph unicode="&#x2011;" horiz-adv-x="1175" d="M102 549v256h971v-256h-971z" />
<glyph unicode="&#x2012;" horiz-adv-x="1175" d="M102 549v256h971v-256h-971z" />
<glyph unicode="&#x2013;" horiz-adv-x="1228" d="M102 549v256h1024v-256h-1024z" />
<glyph unicode="&#x2014;" horiz-adv-x="2252" d="M102 549v256h2048v-256h-2048z" />
<glyph unicode="&#x2018;" horiz-adv-x="460" d="M104 1024v512h127l127 -256h2v-256h-256z" />
<glyph unicode="&#x2019;" horiz-adv-x="460" d="M102 1280v256h254v-512h-127z" />
<glyph unicode="&#x201c;" horiz-adv-x="786" d="M104 1022v512h127l129 -256v-256h-256zM430 1022v512h127l127 -256h2v-256h-256z" />
<glyph unicode="&#x201d;" horiz-adv-x="786" d="M100 1534h256v-512h-127l-127 256zM428 1278v256h254v-512h-127z" />
<glyph unicode="&#x202f;" horiz-adv-x="323" />
<glyph unicode="&#x205f;" horiz-adv-x="404" />
<glyph unicode="&#x20ac;" horiz-adv-x="1576" d="M104 375v256h201v55q0 49 2 74h-203v256h281q91 175 261 281t374 106h455v-256h-455q-190 0 -324 -131h533v-256h-664q-6 -37 -6 -74t2 -55h668v-256h-549q65 -71 153 -111.5t187 -40.5h455v-256h-455q-211 0 -384 112t-261 296h-271z" />
<glyph unicode="&#x25fc;" horiz-adv-x="1433" d="M0 0v1434h1434v-1434h-1434z" />
</font>
</defs>
</svg>
